<?xml version="1.0" standalone="no"?>
<!DOCTYPE svg PUBLIC "-//W3C//DTD SVG 20010904//EN"
 "http://www.w3.org/TR/2001/REC-SVG-20010904/DTD/svg10.dtd">
<svg version="1.0" xmlns="http://www.w3.org/2000/svg"
 width="256.000000pt" height="256.000000pt" viewBox="0 0 256.000000 256.000000"
 preserveAspectRatio="xMidYMid meet">
<metadata>
Created by potrace 1.11, written by Peter Selinger 2001-2013
</metadata>
<g transform="translate(0.000000,256.000000) scale(0.100000,-0.100000)"
fill="#000000" stroke="none">
<path d="M1168 2405 c-2 -3 -20 -7 -39 -9 -19 -3 -54 -10 -79 -16 -25 -6 -52
-12 -60 -14 -35 -6 -76 -19 -87 -29 -7 -5 -13 -7 -13 -4 0 3 -28 -8 -62 -25
-35 -17 -72 -34 -83 -39 -23 -10 -57 -31 -65 -39 -3 -3 -21 -17 -40 -30 -86
-60 -194 -169 -246 -248 -21 -31 -40 -59 -43 -62 -14 -12 -79 -148 -74 -154 4
-3 2 -6 -4 -6 -6 0 -13 -10 -16 -22 -3 -13 -13 -48 -22 -78 -9 -30 -17 -59
-19 -65 -1 -5 -6 -26 -9 -45 -4 -19 -10 -48 -13 -65 -4 -16 -8 -76 -9 -132 -4
-221 93 -499 239 -683 44 -55 174 -177 221 -207 28 -18 55 -36 60 -41 27 -22
184 -94 245 -113 43 -13 82 -33 102 -51 63 -59 94 -70 214 -75 80 -4 97 -1
146 20 31 14 69 38 84 54 17 17 53 36 89 47 81 24 218 89 284 134 29 20 61 42
70 47 55 34 168 157 249 271 28 40 102 189 102 206 0 8 4 18 8 24 5 5 16 36
25 69 59 214 55 420 -13 627 -38 113 -114 256 -186 349 -45 57 -166 168 -230
210 -79 53 -206 119 -229 119 -8 0 -15 5 -15 10 0 6 -13 10 -28 10 -15 0 -32
4 -38 9 -5 4 -38 14 -74 21 -36 6 -74 15 -85 17 -26 7 -251 14 -257 8z"/>
</g>
</svg>
